<svg version="1.0" xmlns="http://www.w3.org/2000/svg"
 width="2000.000000pt" height="1500.000000pt" viewBox="0 0 2000.000000 1500.000000"
 preserveAspectRatio="xMidYMid meet">

<g transform="translate(0.000000,1500.000000) scale(0.100000,-0.100000)"
fill="#FFFFFF" stroke="none">
<path d="M9850 10085 l0 -1195 55 0 55 0 0 1140 0 1140 3658 -2 3657 -3 0
-3660 0 -3660 -3657 -3 -3658 -2 0 1140 0 1140 -55 0 -55 0 0 -1195 0 -1195
3770 0 3770 0 0 3775 0 3775 -3770 0 -3770 0 0 -1195z"/>
<path d="M7654 8635 c-181 -39 -300 -164 -312 -325 -8 -114 32 -201 123 -265
63 -45 124 -67 327 -120 161 -42 233 -70 272 -104 76 -67 58 -222 -33 -286
-61 -42 -124 -57 -241 -58 -154 -1 -265 31 -371 108 l-49 35 -26 -51 -25 -51
21 -23 c36 -39 151 -93 241 -115 106 -25 293 -27 382 -4 128 33 211 93 258
189 27 56 32 75 32 144 0 67 -4 86 -29 130 -55 103 -118 135 -409 212 -250 66
-319 111 -331 215 -19 154 89 252 286 262 146 6 248 -23 363 -104 26 -19 49
-34 50 -34 2 0 14 23 27 50 l23 50 -24 26 c-38 40 -175 103 -262 119 -95 18
-211 18 -293 0z"/>
<path d="M5380 8005 l0 -635 70 0 70 0 0 635 0 635 -70 0 -70 0 0 -635z"/>
<path d="M5710 8580 l0 -60 220 0 220 0 0 -575 0 -575 70 0 70 0 0 575 0 575
225 0 225 0 0 60 0 60 -515 0 -515 0 0 -60z"/>
<path d="M9490 8005 l0 -635 65 0 65 0 0 635 0 635 -65 0 -65 0 0 -635z"/>
<path d="M11520 8545 l0 -75 85 0 85 0 0 75 0 75 -85 0 -85 0 0 -75z"/>
<path d="M10970 8375 l0 -135 -85 0 -85 0 0 -55 0 -55 85 0 85 0 0 -263 c0
-289 6 -331 58 -403 16 -21 53 -52 83 -69 48 -26 66 -30 157 -33 94 -4 102 -3
102 14 0 11 3 36 6 57 l7 37 -74 0 c-95 0 -144 25 -176 90 -22 43 -23 54 -23
307 l0 263 125 0 125 0 0 55 0 55 -125 0 -125 0 0 135 0 135 -70 0 -70 0 0
-135z"/>
<path d="M8713 8246 c-190 -62 -295 -241 -280 -476 12 -183 92 -311 236 -379
51 -24 67 -26 176 -26 116 0 123 1 187 33 155 76 238 243 225 452 -12 183 -92
312 -236 378 -47 22 -72 27 -161 29 -69 2 -120 -2 -147 -11z m212 -107 c57
-14 126 -75 154 -134 48 -102 49 -284 2 -390 -43 -98 -145 -153 -264 -142 -82
7 -145 42 -184 101 -47 68 -58 116 -57 241 0 91 4 120 23 169 53 133 178 192
326 155z"/>
<path d="M12183 8246 c-141 -46 -235 -156 -269 -315 -49 -233 43 -454 224
-539 52 -25 68 -27 177 -27 109 0 125 2 177 27 152 71 238 222 238 418 0 196
-86 348 -238 418 -48 22 -73 27 -162 29 -69 2 -120 -2 -147 -11z m230 -112
c61 -21 121 -82 148 -152 33 -83 33 -262 0 -346 -31 -77 -85 -130 -152 -150
-151 -45 -288 15 -338 149 -40 107 -36 270 8 370 24 54 84 111 135 129 55 19
142 20 199 0z"/>
<path d="M13255 8236 c-43 -18 -75 -41 -112 -82 l-53 -57 0 71 0 72 -65 0 -65
0 0 -435 0 -435 70 0 70 0 0 283 c0 163 4 298 10 319 16 56 69 119 125 147 41
22 63 26 130 26 97 0 138 -20 175 -86 l25 -44 3 -322 3 -323 70 0 70 0 -3 333
c-3 315 -5 335 -26 387 -12 31 -39 72 -59 92 -63 59 -96 72 -208 75 -88 3
-107 1 -160 -21z"/>
<path d="M14185 8253 c-79 -17 -156 -70 -192 -131 -24 -40 -28 -58 -28 -119 0
-63 3 -76 30 -114 47 -67 102 -95 270 -136 128 -31 154 -41 184 -69 32 -29 36
-38 36 -83 0 -91 -64 -131 -213 -131 -94 0 -185 25 -251 69 l-44 30 -24 -51
c-13 -28 -22 -52 -21 -54 27 -26 136 -77 195 -90 105 -23 269 -16 338 15 200
89 209 334 15 420 -25 11 -101 34 -169 51 -182 46 -211 66 -211 148 0 91 53
133 176 140 88 5 163 -15 233 -62 l51 -34 21 46 c13 30 17 52 12 61 -14 22
-107 71 -165 87 -49 13 -197 17 -243 7z"/>
<path d="M9902 7918 c5 -378 9 -400 88 -478 56 -57 119 -80 221 -80 103 0 164
24 232 91 l57 57 0 -69 0 -69 70 0 70 0 0 435 0 435 -69 0 -70 0 -3 -292 c-3
-277 -4 -295 -24 -333 -51 -95 -124 -139 -234 -139 -92 -1 -134 20 -170 85
-25 44 -25 44 -28 362 l-3 317 -70 0 -70 0 3 -322z"/>
<path d="M11530 7805 l0 -435 70 0 70 0 0 435 0 435 -70 0 -70 0 0 -435z"/>
<path d="M7104 7030 c-42 -17 -64 -58 -64 -121 0 -59 0 -59 -30 -59 -20 0 -30
-5 -30 -15 0 -10 10 -15 31 -15 l30 0 -3 -155 -3 -155 26 0 26 0 -1 153 -1
152 48 3 c33 2 47 7 47 18 0 10 -12 14 -45 14 l-45 0 0 58 c0 74 19 96 80 90
36 -3 40 -1 38 17 -2 16 -11 20 -43 22 -22 1 -50 -2 -61 -7z"/>
<path d="M9958 7033 c-15 -4 -18 -17 -18 -92 l0 -87 -65 0 c-73 0 -103 -16
-142 -74 -18 -26 -23 -47 -23 -96 0 -102 31 -155 102 -174 39 -11 79 1 120 37
14 13 17 12 23 -6 13 -42 78 -50 88 -11 4 14 -1 20 -22 22 l-26 3 0 243 c0
155 -4 242 -10 241 -5 -1 -18 -3 -27 -6z m-34 -226 c15 -11 20 -32 24 -108 l5
-95 -33 -27 c-52 -44 -116 -34 -145 23 -18 36 -19 136 -1 169 26 47 109 68
150 38z"/>
<path d="M13698 7033 c-17 -4 -18 -25 -18 -264 l0 -259 25 0 25 0 0 265 c0
146 -3 264 -7 264 -5 -1 -16 -3 -25 -6z"/>
<path d="M8470 6996 c-18 -22 -5 -48 22 -44 17 2 23 10 23 28 0 29 -26 38 -45
16z"/>
<path d="M11257 7004 c-12 -13 -8 -52 7 -57 8 -3 22 1 33 8 14 11 16 18 7 32
-12 19 -36 28 -47 17z"/>
<path d="M13870 6996 c-18 -22 -5 -46 25 -46 23 0 26 4 23 27 -3 32 -29 41
-48 19z"/>
<path d="M5380 6970 c0 -18 7 -20 70 -20 l70 0 0 -220 0 -220 25 0 25 0 0 220
0 220 70 0 c63 0 70 2 70 20 0 19 -7 20 -165 20 -158 0 -165 -1 -165 -20z"/>
<path d="M9560 6750 l0 -240 25 0 25 0 0 240 0 240 -25 0 -25 0 0 -240z"/>
<path d="M12580 6750 l0 -240 25 0 c25 0 25 1 25 90 l0 90 48 0 49 0 54 -91
c29 -50 59 -93 65 -96 5 -2 20 0 33 5 22 8 22 8 -13 53 -19 25 -48 67 -65 94
l-31 48 30 19 c44 26 70 75 70 131 0 105 -46 137 -194 137 l-96 0 0 -240z
m185 186 c69 -29 70 -145 1 -187 -22 -14 -45 -19 -81 -17 l-50 3 -3 94 c-1 52
-1 100 2 108 7 18 87 17 131 -1z"/>
<path d="M11863 6917 c-16 -7 -23 -19 -23 -39 0 -23 -4 -28 -25 -28 -16 0 -25
-6 -25 -15 0 -9 9 -15 25 -15 l25 0 0 -128 c0 -137 8 -164 55 -182 31 -12 92
6 97 28 4 15 -2 18 -46 17 l-51 0 -3 133 -3 132 56 0 c42 0 55 3 55 15 0 11
-13 15 -54 15 l-55 0 -3 39 c-3 36 -5 37 -25 28z"/>
<path d="M14083 6919 c-17 -6 -23 -16 -23 -39 0 -25 -4 -30 -25 -30 -16 0 -25
-6 -25 -15 0 -9 9 -15 25 -15 l25 0 0 -125 c0 -138 9 -169 51 -184 38 -13 99
4 99 27 0 14 -8 17 -45 14 -40 -4 -46 -1 -53 20 -4 12 -6 74 -4 136 l4 112 48
0 c33 0 50 5 54 15 4 12 -5 15 -49 15 l-54 0 -3 39 c-3 35 -5 38 -25 30z"/>
<path d="M9300 6855 c-25 -7 -74 -10 -111 -7 -49 3 -73 0 -98 -12 -61 -32 -78
-129 -30 -177 l21 -21 -21 -22 c-28 -30 -26 -50 6 -74 l27 -20 -32 -27 c-47
-40 -40 -90 18 -120 88 -46 230 13 230 95 0 50 -28 65 -162 90 -52 10 -58 14
-58 36 0 13 3 24 8 25 4 0 32 2 62 3 94 4 135 49 128 143 -3 46 -2 48 25 51
27 3 43 21 35 40 -1 5 -23 3 -48 -3z m-79 -54 c32 -26 32 -96 -1 -123 -32 -26
-94 -24 -120 4 -69 74 42 183 121 119z m-21 -292 c57 -12 78 -36 60 -69 -15
-29 -47 -42 -101 -43 -51 -1 -89 21 -89 52 0 18 49 71 66 71 7 0 36 -5 64 -11z"/>
<path d="M6042 6846 c-55 -18 -71 -32 -65 -56 5 -19 6 -19 33 1 35 26 99 35
123 17 10 -8 21 -32 24 -55 6 -48 0 -53 -89 -72 -75 -16 -108 -42 -108 -85 0
-42 31 -83 69 -91 31 -7 77 11 100 39 18 22 31 20 31 -4 0 -28 40 -46 69 -31
29 16 27 41 -4 41 l-25 0 0 128 c0 120 -1 130 -22 149 -30 28 -83 35 -136 19z
m108 -215 c0 -33 -5 -43 -31 -62 -56 -40 -113 -22 -107 35 3 29 8 32 63 48 33
9 63 17 68 17 4 1 7 -17 7 -38z"/>
<path d="M6788 6853 c-44 -7 -78 -46 -78 -90 1 -47 13 -64 69 -92 47 -24 91
-63 91 -81 0 -5 -9 -19 -20 -30 -24 -24 -73 -26 -114 -5 -36 19 -36 19 -36 -9
0 -19 8 -27 36 -36 85 -28 174 18 174 90 0 44 -23 71 -90 105 -57 29 -76 55
-60 85 14 26 55 36 95 21 17 -6 34 -11 38 -11 9 0 9 38 0 43 -14 8 -78 14
-105 10z"/>
<path d="M7315 6853 c-36 -9 -77 -45 -92 -81 -21 -50 -19 -155 4 -199 26 -50
75 -75 136 -70 91 8 141 70 141 176 1 88 -23 137 -78 162 -40 18 -72 22 -111
12z m105 -61 c49 -50 52 -175 5 -226 -32 -34 -93 -36 -129 -3 -33 28 -50 110
-36 170 18 84 103 115 160 59z"/>
<path d="M10190 6838 c-59 -31 -84 -80 -83 -164 1 -69 20 -113 64 -147 56 -41
190 -27 197 21 4 26 5 26 -44 6 -47 -20 -98 -13 -131 17 -24 24 -48 92 -38
109 3 6 55 10 116 10 l109 0 0 43 c0 59 -29 103 -77 116 -53 15 -63 14 -113
-11z m120 -38 c11 -11 20 -33 20 -50 l0 -30 -85 0 c-53 0 -85 4 -85 10 0 20
30 69 47 79 30 17 81 13 103 -9z"/>
<path d="M10553 6851 c-48 -12 -86 -40 -79 -58 3 -8 6 -16 6 -19 0 -2 16 8 36
21 42 28 95 33 118 9 10 -9 16 -33 16 -59 l0 -43 -75 -18 c-91 -21 -115 -41
-115 -93 0 -44 29 -77 75 -87 23 -4 39 1 72 25 40 29 42 29 48 11 12 -38 66
-47 87 -16 13 19 9 25 -19 28 l-28 3 4 121 c3 115 2 121 -20 147 -27 29 -76
40 -126 28z m97 -214 c0 -23 -8 -41 -27 -59 -43 -40 -68 -44 -98 -14 -28 29
-30 36 -12 59 9 13 90 41 130 46 4 1 7 -14 7 -32z"/>
<path d="M10898 6853 c-44 -7 -78 -46 -78 -91 0 -48 11 -61 83 -101 59 -34 78
-55 69 -81 -12 -40 -73 -52 -126 -25 -36 19 -36 19 -36 -9 0 -19 8 -27 36 -36
85 -28 174 20 174 93 -1 42 -15 59 -79 93 -65 35 -87 64 -71 93 14 27 55 37
95 22 17 -6 34 -11 38 -11 9 0 9 38 0 43 -14 8 -78 14 -105 10z"/>
<path d="M12149 6851 c-76 -25 -108 -77 -109 -176 0 -133 91 -204 205 -161 66
26 90 70 90 166 0 83 -17 126 -59 153 -30 20 -92 29 -127 18z m90 -47 c67 -47
68 -218 2 -254 -26 -13 -77 -13 -103 1 -64 34 -64 221 -1 258 27 16 76 13 102
-5z"/>
<path d="M13046 6850 c-66 -21 -106 -86 -106 -172 1 -79 29 -134 82 -158 50
-23 73 -24 133 -9 34 9 44 16 48 36 4 19 1 23 -12 17 -53 -21 -87 -25 -123
-14 -46 13 -78 58 -78 108 l0 32 115 0 115 0 0 30 c0 44 -24 96 -53 115 -31
20 -84 27 -121 15z m103 -56 c12 -15 21 -37 21 -50 0 -23 -2 -24 -91 -24 -89
0 -90 0 -84 23 4 12 20 34 36 50 40 37 90 37 118 1z"/>
<path d="M13400 6854 c-66 -22 -90 -38 -90 -61 l0 -24 30 21 c76 54 150 29
150 -49 l0 -40 -77 -17 c-109 -24 -140 -59 -113 -129 14 -36 73 -60 111 -45
15 7 35 20 45 31 20 23 34 24 34 4 0 -8 11 -22 24 -30 19 -13 29 -14 45 -5 30
15 27 40 -5 40 l-25 0 2 123 c2 80 -1 129 -9 143 -17 32 -80 51 -122 38z m87
-220 c-7 -43 -28 -69 -67 -82 -43 -16 -75 5 -75 48 0 34 1 35 60 52 88 24 89
24 82 -18z"/>
<path d="M5750 6680 l0 -170 25 0 25 0 0 100 c0 108 11 146 52 174 12 9 33 16
45 16 18 0 23 6 23 25 0 41 -53 28 -97 -24 l-22 -26 -1 38 c0 33 -3 37 -25 37
l-25 0 0 -170z"/>
<path d="M6340 6680 l0 -170 25 0 24 0 3 127 3 127 35 24 c23 16 46 22 69 20
55 -5 63 -30 56 -175 l-5 -123 29 0 29 0 -4 148 c-4 143 -5 148 -30 170 -35
31 -98 30 -147 -3 l-37 -26 0 26 c0 20 -5 25 -25 25 l-25 0 0 -170z"/>
<path d="M7604 6680 c1 -170 1 -170 23 -170 22 0 23 3 23 101 0 86 3 107 21
135 24 39 47 54 83 54 21 0 26 5 26 25 0 39 -43 34 -87 -10 -19 -19 -37 -35
-39 -35 -2 0 -4 16 -4 35 0 30 -3 35 -23 35 l-24 0 1 -170z"/>
<path d="M7850 6680 l0 -170 25 0 25 0 0 125 0 124 37 26 c44 30 93 32 116 7
14 -15 17 -42 17 -150 l0 -132 25 0 24 0 3 127 3 127 34 23 c44 30 95 30 115
1 13 -18 16 -51 16 -150 l0 -128 26 0 25 0 -3 146 c-3 146 -3 146 -31 170 -37
32 -89 31 -146 -1 l-43 -25 -26 25 c-34 34 -95 34 -146 0 -20 -14 -39 -25 -41
-25 -3 0 -5 11 -5 25 0 20 -5 25 -25 25 l-25 0 0 -170z"/>
<path d="M8468 6680 l-3 -170 28 0 27 0 0 170 0 170 -25 0 -24 0 -3 -170z"/>
<path d="M8650 6680 l0 -170 25 0 24 0 3 127 3 127 34 23 c41 28 92 30 114 5
14 -15 17 -42 17 -150 l0 -132 25 0 25 0 0 141 0 141 -29 29 c-38 38 -88 39
-148 4 l-43 -26 0 26 c0 20 -5 25 -25 25 l-25 0 0 -170z"/>
<path d="M11250 6680 l0 -170 25 0 25 0 0 170 0 170 -25 0 -25 0 0 -170z"/>
<path d="M11440 6680 l0 -170 25 0 24 0 3 127 3 127 34 23 c46 31 96 30 117
-2 13 -19 15 -47 12 -150 l-3 -125 28 0 28 0 -3 146 -3 146 -28 24 c-39 33
-100 33 -150 -1 l-37 -26 0 26 c0 20 -5 25 -25 25 l-25 0 0 -170z"/>
<path d="M13870 6680 l0 -170 25 0 25 0 0 170 0 170 -25 0 -25 0 0 -170z"/>
<path d="M14266 6783 c14 -37 44 -117 66 -176 l39 -108 -25 -34 c-16 -21 -45
-41 -76 -52 -45 -17 -49 -21 -38 -36 12 -16 16 -16 60 -1 74 25 96 59 176 272
40 106 72 195 72 197 0 11 -41 4 -44 -7 -21 -69 -96 -263 -103 -265 -4 -2 -29
59 -55 134 -43 125 -49 138 -72 141 l-26 3 26 -68z"/>
<path d="M14572 6558 c-25 -25 0 -64 32 -52 21 8 21 50 0 58 -20 8 -18 8 -32
-6z"/>
</g>
</svg>
